<svg xmlns="http://www.w3.org/2000/svg" fill="none" viewBox="0 0 217 24" height="24" width="217">
<g clip-path="url(#clip0_490_923)">
<path fill="white" d="M102.997 18.693V23.9999H126.289V6.72144H121.629V18.693H102.997Z"></path>
<path fill="white" d="M117.225 5.29747V0H93.9326V17.269H98.593V5.29747H117.225Z"></path>
<path fill="white" d="M67.7225 8.8672H70.8233V17.2691H73.0709V8.8672H76.1717V6.73112H67.7317V8.8672H67.7225ZM33.1273 13.2153L28.3568 6.72163H26.2927V17.2596H28.5036V10.5571L33.4392 17.2596H35.3474V6.72163H33.1365V13.2153H33.1273ZM52.3102 13.5096H55.2642C55.1266 14.3071 54.3651 15.4938 52.4661 15.4938C50.5671 15.4938 49.1084 13.9653 49.1084 12.0096C49.1084 10.0539 50.5671 8.50644 52.5028 8.50644C54.4385 8.50644 55.3559 10.1014 55.3926 10.1678L57.1265 9.05707C56.1082 7.3577 54.4202 6.37985 52.4936 6.37985C49.4479 6.37985 46.9709 8.89568 46.9709 11.9811C46.9709 15.0666 49.3653 17.6014 52.4202 17.6014C55.255 17.6014 57.4751 15.4938 57.4751 12.6552V11.4305H52.3102V13.5191V13.5096ZM42.7967 11.2121C41.3289 10.6425 39.8702 10.4526 39.8702 9.42732C39.8702 8.83872 40.4665 8.40201 41.7234 8.40201C42.9802 8.40201 44.3013 8.97163 45.2095 9.4653V7.2153C43.9802 6.68365 42.7967 6.37036 41.5766 6.37036C39.1179 6.37036 37.4483 7.6615 37.4483 9.53175C37.4483 11.5729 39.1271 12.2944 40.3014 12.7501C41.7692 13.3197 43.1729 13.5286 43.1729 14.5444C43.1729 15.133 42.494 15.5792 41.2463 15.5792C40.072 15.5792 38.6501 15.0096 37.7418 14.5159V16.7754C39.017 17.345 40.1821 17.6109 41.3931 17.6109C43.8792 17.6109 45.604 16.3197 45.604 14.4495C45.604 12.4083 43.971 11.6773 42.7967 11.2216M18.8617 6.37985C15.8985 6.37985 13.495 8.8672 13.495 11.9337C13.495 15.0001 15.8802 17.5919 18.8067 17.5919C21.7332 17.5919 24.2652 15.114 24.2652 11.9526C24.2652 8.79125 21.8433 6.38935 18.8709 6.38935M18.8342 15.3988C17.0361 15.3988 15.6325 13.8988 15.6325 11.9906C15.6325 10.0824 17.0545 8.59188 18.8801 8.59188C20.7057 8.59188 22.091 10.0729 22.091 11.9621C22.091 13.8514 20.6874 15.3988 18.8342 15.3988ZM2.23846 6.72163H0V17.2596H7.30251V15.152H2.23846V6.72163ZM84.8228 15.1995H80.0615V12.9875H84.4283C84.4008 12.6172 84.3733 12.2469 84.3733 11.8672C84.3733 11.5539 84.3825 11.2406 84.41 10.9273H80.0615V8.79125H84.7678C84.9604 8.07922 85.2081 7.38618 85.52 6.73112H77.8322V17.2691H85.5843C85.2723 16.614 85.0155 15.921 84.8228 15.209M9.13731 17.2596H11.3758V6.72163H9.13731V17.2596ZM62.264 6.72163L57.9338 17.2596H60.2181L61.0255 15.19H65.5758L66.3831 17.2596H68.7316L64.3923 6.72163H62.264ZM61.7869 13.2438L63.3006 9.43682L64.8235 13.2438H61.7869Z"></path>
<path fill="white" d="M86.5659 6.72144C86.9604 6.72144 87.2723 7.04422 87.2723 7.44295C87.2723 7.84169 86.9604 8.16447 86.5567 8.16447C86.153 8.16447 85.8411 7.85118 85.8411 7.44295C85.8411 7.03473 86.1622 6.72144 86.5567 6.72144H86.5659ZM86.5567 6.86384C86.254 6.86384 86.0246 7.12017 86.0246 7.43346C86.0246 7.74675 86.254 8.00308 86.5659 8.00308C86.8686 8.00308 87.098 7.74675 87.098 7.43346C87.098 7.12017 86.8686 6.86384 86.5659 6.86384H86.5567ZM86.4466 7.81321H86.2815V7.10118C86.3457 7.09169 86.4374 7.0727 86.5475 7.0727C86.676 7.0727 86.7402 7.09169 86.786 7.12966C86.8227 7.15814 86.8503 7.21511 86.8503 7.28156C86.8503 7.36701 86.7952 7.42397 86.7035 7.45245C86.7677 7.48093 86.8136 7.53789 86.8319 7.63283C86.8503 7.74675 86.8686 7.78473 86.887 7.80371H86.7127C86.7127 7.80371 86.676 7.71827 86.6576 7.63283C86.6484 7.55688 86.6026 7.5189 86.5108 7.5189H86.4374V7.80371L86.4466 7.81321ZM86.4466 7.40498H86.52C86.6117 7.40498 86.6851 7.3765 86.6851 7.30055C86.6851 7.23409 86.6393 7.18663 86.5384 7.18663C86.4925 7.18663 86.465 7.18663 86.4466 7.18663V7.39549V7.40498Z"></path>
<path fill="white" d="M136.638 15.1518L136.628 6.73096H134.381L134.39 17.2594L141.702 17.2499L141.692 15.1423L136.638 15.1518Z"></path>
<path fill="white" d="M147.243 6.73096L147.252 17.2594L149.5 17.2499L149.49 6.73096H147.243Z"></path>
<path fill="white" d="M163.517 6.73093L161.774 9.64549L160.857 11.174L158.178 6.72144H155.756V17.2594L157.967 17.2499V13.4619V10.443L160.802 14.886H160.866L162.334 12.56L163.71 10.3955V17.2594L165.949 17.2499V6.73093H163.527H163.517ZM157.967 10.4335L159.343 12.5885L157.967 10.443V10.4335Z"></path>
<path fill="white" d="M172.26 6.73096L172.269 17.2594L174.517 17.2499L174.508 6.73096H172.26Z"></path>
<path fill="white" d="M188.544 6.73096L180.113 6.74045L180.122 8.87653H183.205L183.214 17.2594L185.462 17.2499L185.452 8.87653L188.553 8.86703L188.544 6.73096Z"></path>
<path fill="white" d="M196.159 15.1898L196.149 12.9968L200.957 12.9873L200.947 10.9177L196.159 10.9272L196.149 8.80058L201.608 8.79108L201.599 6.73096H193.92L193.929 17.2594L201.681 17.2499L201.672 15.1803L196.159 15.1898Z"></path>
<path fill="white" d="M211.387 6.73096H207.415V17.2689H211.387C214.525 17.2689 216.8 15.0569 216.8 11.9999V11.9715C216.8 8.94298 214.525 6.74045 211.387 6.74045M209.663 8.83855H211.387C213.185 8.83855 214.442 10.1392 214.442 11.9999V12.0284C214.442 13.8987 213.213 15.1613 211.387 15.1613H209.672V8.84805L209.663 8.83855ZM215.139 15.8544C215.139 15.8544 215.222 15.7879 215.268 15.7499C215.231 15.7879 215.185 15.8164 215.139 15.8544ZM216.378 14.098C216.378 14.098 216.36 14.1265 216.35 14.1455C216.35 14.1265 216.369 14.117 216.378 14.098ZM215.91 14.981C215.855 15.0569 215.791 15.1234 215.736 15.1993C215.791 15.1234 215.864 15.0569 215.91 14.981Z"></path>
</g>
<defs>
<clipPath id="clip0_490_923">
<rect fill="white" height="24" width="216.8"></rect>
</clipPath>
</defs>
</svg>
