<svg version="1.1" id="Layer_1" xmlns:x="ns_extend;" xmlns:i="ns_ai;" xmlns:graph="ns_graphs;" xmlns="http://www.w3.org/2000/svg" xmlns:xlink="http://www.w3.org/1999/xlink" x="0px" y="0px" viewBox="0 0 130 52" style="enable-background:new 0 0 130 52;" xml:space="preserve">
 <style type="text/css">
  .st0{fill:#FFFFFF;}
 </style>
 <metadata>
  <sfw xmlns="ns_sfw;">
   <slices>
   </slices>
   <sliceSourceBounds bottomLeftOrigin="true" height="52" width="130" x="135.5" y="-226.2">
   </sliceSourceBounds>
  </sfw>
 </metadata>
 <g>
  <path class="st0" d="M61.8,11.9L61.8,11.9l0,14.1c0.6,0,1.3-0.1,1.9-0.4c1.9-0.9,3.4-3.1,3.4-6.7C67.1,12,62.5,11.9,61.8,11.9z">
  </path>
  <polygon class="st0" points="40.5,34.2 45,34.2 42.7,15.4 	">
  </polygon>
  <path class="st0" d="M0,0v52h130V0H0z M110.2,12L110.2,12L110.2,12h-7.1V22h7.1v8h-7.1v10.1h7.1V48h-15V8.1L88.9,48l-9.3,0
		c0,0-4.7-28.2-4.7-28.3v0c0.8,4.6-2.1,9.3-4.6,11.2l5,17h0l0,0h-7.8l-3.8-14.6l-1.8,0.3V48h0v0h0l-15,0l-0.9-6.8h-6.2L38.7,48h-7.2
		v0h-8.1v0h0V26.9L19.8,48h-4.2l0,0h0L12,27.1V48H4v0V4v0h10.1l3.5,22.7L21.3,4h0l0,0h10.2v39.6L37.4,4L48,4l5.9,39l0-39
		c0,0,8,0,8.1,0c7.3,0,10.6,5.3,11.5,7.1L72.5,4h8.1l3.6,26.8L87.9,4h22.3V12z M126.2,48h-14.6V4h7.9v36.1h6.8V48z">
  </path>
 </g>
</svg>