<svg version="1.1" id="Layer_1" xmlns="http://www.w3.org/2000/svg" xmlns:xlink="http://www.w3.org/1999/xlink" x="0px" y="0px" viewBox="0 0 178.6 142.3" style="enable-background:new 0 0 178.6 142.3;" xml:space="preserve">
 <style type="text/css">
  .st0{fill:#FFFFFF;}
 </style>
 <g>
  <path class="st0" d="M69.7,116.1c-0.9-0.4-2.4-2,0.1-6.6l5.6-11.8c0.2-0.4-0.2-0.8-0.5-0.5l-4.9,5c-2.3,2.4-6.3,9.3-7.1,10.6
		l-6,9.9c0.6,0,1,0.7,0.7,1.2l-5.5,9.2c-1.3,2.3,1.1,3.9,1.4,3.4c8.6-13.9,13.6-12.8,13.6-12.8L70,117
		C70.3,116.7,70.1,116.3,69.7,116.1">
  </path>
  <path class="st0" d="M89.3,0C40,0,0,40,0,89.3c0,19.9,6.5,38.2,17.4,53c3.7-1.6,5.8-4,7.3-5.9l16.6-21.3c0.4-0.4,0.8-0.8,1.3-1
		l2.5-1.1l27.3-34.7l4-3.1l8.1-11.3c0.2-0.3,0.5-0.6,0.8-0.8l3.6-2.6c0.9-0.6,2.1-0.7,3,0l4.3,3c2.3,1.6,4.1,3.7,5.4,6.2l17.3,30.3
		c0.4,0.7,0.7,1,1.4,1.3c3.4,1.7,5.4,2,9.9,6.8c2.1,2.3,11.1,12.4,23.8,28.1c1.8,2.4,4,4.4,7.2,5.8c10.9-14.8,17.4-33.1,17.4-52.9
		C178.6,40,138.6,0,89.3,0 M24.1,94.2l-5.8-1.9l-3.6,4.9v-6.1l-5.8-1.9l5.8-1.9v-6.1l3.6,4.9l5.8-1.9l-3.6,4.9L24.1,94.2z
		 M22.8,114.1l-1.9,5.8l-1.9-5.8h-6.1l4.9-3.6l-1.9-5.8l4.9,3.6l4.9-3.6l-1.9,5.8l4.9,3.6H22.8z M23.9,68l1.9,5.8l-4.9-3.6L16,73.8
		l1.9-5.8L13,64.4h6.1l1.9-5.8l1.9,5.8H29L23.9,68z M33.7,54.9L30.1,50l-5.8,1.9l3.6-4.9l-3.6-4.9l5.8,1.9l3.6-4.9v6.1l5.8,1.9
		L33.7,49V54.9z M48.9,33.6L47,39.4l-1.9-5.8H39l4.9-3.6L42,24.2l4.9,3.6l4.9-3.6L49.9,30l4.9,3.6H48.9z M68.1,23.9l-3.6,4.9v-6.1
		l-5.8-1.9l5.8-1.9v-6l3.6,4.9l5.8-1.9l-3.6,4.9l3.6,4.9L68.1,23.9z M92.4,18.3l1.9,5.8l-4.9-3.6l-4.9,3.6l1.9-5.8l-4.9-3.6h6.1
		l1.9-5.8l1.9,5.8h6.1L92.4,18.3z M114.2,22.7v6.1l-3.6-4.9l-5.8,1.9l3.6-4.9l-3.6-4.9l5.8,1.9l3.6-4.9v6.1L120,21L114.2,22.7z
		 M154.5,84.3l5.8,1.9l3.6-4.9v6.1l5.8,1.9l-5.8,1.9v6.1l-3.6-4.9l-5.8,1.9l3.6-4.9L154.5,84.3z M131.6,39.4l-1.9-5.8h-6.1l4.9-3.6
		l-1.9-5.8l4.9,3.6l4.9-3.6l-1.9,5.8l4.9,3.6h-5.9L131.6,39.4z M145,54.9v-6l-5.8-1.9l5.8-1.9V39l3.6,4.9l5.8-1.9l-3.6,4.9l3.6,4.9
		l-5.8-1.9L145,54.9z M155.9,64.4l1.9-5.8l1.9,5.8h6.1l-4.9,3.6l1.9,5.8l-4.9-3.6l-4.9,3.6l1.9-5.8l-4.9-3.6H155.9z M159.7,114.1
		l-1.9,5.8l-1.9-5.8h-6.1l4.9-3.6l-1.9-5.8l4.9,3.6l4.9-3.6l-1.9,5.8l4.9,3.6H159.7z">
  </path>
  <path class="st0" d="M121.7,140.9c0.4-0.6,1.1-2.3-0.2-5.5l-3.9-10.6c-0.5-1.4,0.6-2.2,1.4-1.3c0,0,7.5,8.6,9.4,12.2l3.7,6.1
		c3.2,0.2,11.9,0.5,20.3,0.5c-0.8-0.8-1.6-1.7-2.4-2.7c-14.4-17.8-23.5-27.7-23.5-27.8c-2.9-3.2-4.3-3.8-6.5-4.8
		c-0.3-0.1-0.7-0.3-1-0.5v2.7c0,0.4-0.4,0.5-0.6,0.2L97.3,72.3l-0.1-0.1c-0.9-1.7-2.2-3.2-3.8-4.4l-2.1-1.4L81.2,89.6
		c1.6,0,2.6,1.6,2,3l-9.3,21.5h8.5c3.3,0,6.6,0.6,9.6,1.9l2.2,0.9c0,0-6.8,14-6.8,21.3c0,1.3,0.2,2.7,0.6,4h15.6l-0.7-4.4
		C103.1,137.8,112.5,140,121.7,140.9">
  </path>
 </g>
</svg>